<?xml version="1.0" encoding="UTF-8"?>
<svg version="1.1" xmlns="http://www.w3.org/2000/svg" width="500" height="500">
<path d="M0 0 C165 0 330 0 500 0 C500 165 500 330 500 500 C335 500 170 500 0 500 C0 335 0 170 0 0 Z " fill="#FEFEFE" transform="translate(0,0)"/>
<path d="M0 0 C3.375 1.8125 3.375 1.8125 6 4 C7.89838391 4.67569597 9.79700923 5.35077507 11.69921875 6.015625 C16.43976518 8.04383841 20.90517912 10.87619363 25 14 C25 14.66 25 15.32 25 16 C25.57234375 16.2578125 26.1446875 16.515625 26.734375 16.78125 C29.21128995 18.11365942 31.1341166 19.65056118 33.25 21.5 C34.30960938 22.41265625 34.30960938 22.41265625 35.390625 23.34375 C37 25 37 25 37 27 C38.485 27.495 38.485 27.495 40 28 C40 28.66 40 29.32 40 30 C40.66 30 41.32 30 42 30 C42 30.66 42 31.32 42 32 C42.5775 32.226875 43.155 32.45375 43.75 32.6875 C46.56427613 34.32916107 48.02737733 36.43559053 50 39 C50.66 39.33 51.32 39.66 52 40 C52 40.99 52 41.98 52 43 C53.485 43.495 53.485 43.495 55 44 C56.1875 46.5625 56.1875 46.5625 57 49 C57.66 49 58.32 49 59 49 C59.268125 49.763125 59.53625 50.52625 59.8125 51.3125 C60.77608891 53.97931034 60.77608891 53.97931034 62.5 55.375 C64.80145734 57.86824545 65.20622822 60.76385352 66 64 C66.66 64 67.32 64 68 64 C68.433125 64.886875 68.86625 65.77375 69.3125 66.6875 C70.89033056 69.89028782 70.89033056 69.89028782 72.47119141 72.40722656 C77.6936247 81.26417987 78.69338134 90.03484644 78.63134766 100.10498047 C78.62504482 102.23485439 78.67201984 104.35909399 78.72265625 106.48828125 C78.83088462 118.4550366 75.89526263 130.81620257 67.9921875 140.234375 C53.94687861 152.68237425 36.11828146 155.83054222 18.03271484 155.48706055 C15.34295979 155.43690252 12.6550285 155.42551933 9.96484375 155.41992188 C8.23435561 155.40585815 6.50388317 155.38966183 4.7734375 155.37109375 C3.97964691 155.36573105 3.18585632 155.36036835 2.36801147 155.35484314 C-5.2555549 155.19206036 -11.36003962 153.23347675 -17 148 C-21.24876629 142.79823941 -23.94291906 137.34369271 -26 131 C-26.26683594 130.32582031 -26.53367188 129.65164063 -26.80859375 128.95703125 C-32.16511889 114.88654177 -30.1176094 97.9640968 -30.0625 83.1875 C-30.05747566 80.83789158 -30.0529144 78.48828212 -30.04882812 76.13867188 C-30.03789493 70.42575831 -30.02123069 64.71288409 -30 59 C-29.34 59 -28.68 59 -28 59 C-28.01571045 58.07251953 -28.0314209 57.14503906 -28.04760742 56.18945312 C-28.09904057 52.71543678 -28.13649682 49.24183094 -28.16479492 45.76757812 C-28.17978888 44.27011693 -28.20019105 42.77269895 -28.22631836 41.27539062 C-28.36241554 33.26967427 -28.42431629 26.41043447 -25 19 C-24.7293016 16.64115326 -24.7293016 16.64115326 -24.8125 14.5625 C-24.3542517 8.57402785 -20.25208993 4.89557524 -16 1 C-11.35726126 -1.32136937 -5.05243161 -0.42778025 0 0 Z " fill="#010101" transform="translate(252,245)"/>
<path d="M0 0 C2.81293423 1.03580972 4.54886466 2.17468645 7 4 C7.495 5.485 7.495 5.485 8 7 C8.86625 7.185625 8.86625 7.185625 9.75 7.375 C16.13532017 9.14870005 20.93615904 17.58206105 24 23 C25.95219852 27.9277269 27.48804239 32.92294676 29 38 C29.5550592 39.64835763 30.11621345 41.29469591 30.6875 42.9375 C33.22735423 50.276588 34.49899336 57.71099976 35.5625 65.375 C35.81065598 67.1540875 36.06180966 68.93276026 36.31640625 70.7109375 C36.42412354 71.48743652 36.53184082 72.26393555 36.64282227 73.06396484 C36.92087529 75.07301561 36.92087529 75.07301561 38 77 C41.71036316 103.88868121 41.71036316 103.88868121 35 113 C31.9375 115.4375 31.9375 115.4375 29 117 C28.01 117.66 27.02 118.32 26 119 C22.80791447 119.45601222 19.5962372 119.37032476 16.375 119.375 C15.51003906 119.39949219 14.64507812 119.42398438 13.75390625 119.44921875 C8.13350882 119.4744979 4.18535788 118.50621854 -0.83349609 116.01171875 C-4.25668006 114.41315279 -7.83827983 113.68098491 -11.5 112.8125 C-19.82968573 110.68974535 -26.89116604 107.23418518 -34.328125 102.98828125 C-37.45057209 101.21735322 -40.57085164 100.07992583 -44 99 C-45.625 97.5 -45.625 97.5 -47 96 C-47.70125 95.649375 -48.4025 95.29875 -49.125 94.9375 C-51 94 -51 94 -52 92 C-52.66 91.608125 -53.32 91.21625 -54 90.8125 C-62.39173959 85.74249066 -70.18206502 79.01273312 -77 72 C-77.33 71.67 -77.66 71.34 -78 71 C-78.15482163 68.11198118 -78.23179909 65.26439514 -78.25 62.375 C-78.2809375 61.18197266 -78.2809375 61.18197266 -78.3125 59.96484375 C-78.37461884 50.50725079 -74.41922659 43.42398967 -67.875 36.625 C-65 34 -65 34 -63 34 C-62.67 33.01 -62.34 32.02 -62 31 C-61.34 31 -60.68 31 -60 31 C-59.67 30.01 -59.34 29.02 -59 28 C-53.74127619 23.13545651 -47.99749076 18.89836899 -42 15 C-41.54367187 14.51015625 -41.08734375 14.0203125 -40.6171875 13.515625 C-38.71252577 11.73057971 -37.06491819 11.04098258 -34.625 10.125 C-33.74585938 9.78855469 -32.86671875 9.45210937 -31.9609375 9.10546875 C-30.98382813 8.74066406 -30.00671875 8.37585938 -29 8 C-26.74894893 7.14860715 -24.49897064 6.29437325 -22.25 5.4375 C-21.20328125 5.04433594 -20.1565625 4.65117187 -19.078125 4.24609375 C-15.95131743 3.0402304 -15.95131743 3.0402304 -12.91796875 1.375 C-8.5476946 -0.68435274 -4.73533629 -0.68714659 0 0 Z " fill="#020202" transform="translate(324,133)"/>
<path d="M0 0 C3.42713424 1.02750207 4.89882089 2.85027848 7.09765625 5.62890625 C8.06269196 8.31612668 8.47136069 10.99294145 8.84765625 13.81640625 C9.02240479 14.94381226 9.02240479 14.94381226 9.20068359 16.09399414 C9.9393603 20.99128371 10.53078039 25.90298652 10.88671875 30.84375 C11.007405 32.73104274 11.007405 32.73104274 12.09765625 34.62890625 C12.20006108 36.89949356 12.23610493 39.17315975 12.24291992 41.44604492 C12.24627853 42.14710358 12.24963715 42.84816223 12.25309753 43.57046509 C12.26262139 45.89595294 12.26455175 48.22136883 12.265625 50.546875 C12.26883797 52.16392547 12.27220208 53.78097565 12.27571106 55.39802551 C12.28170689 58.79343336 12.28355063 62.18881575 12.28295898 65.58422852 C12.28285765 69.92407243 12.29647773 74.26375166 12.31373119 78.60355663 C12.32488318 81.94683066 12.32687717 85.29006538 12.32634926 88.63335609 C12.32752579 90.23245114 12.33192916 91.83154732 12.33968163 93.43062401 C12.34954064 95.67546244 12.34657979 97.91995016 12.34057617 100.16479492 C12.34200119 101.44005539 12.34342621 102.71531586 12.34489441 104.02922058 C12.08470199 107.81751498 11.23689974 111.01653167 10.09765625 114.62890625 C9.42376142 118.18925232 8.78531679 121.75297164 8.171875 125.32421875 C6.86350034 129.34925499 5.4710437 131.08827972 2.09765625 133.62890625 C-2.30400983 134.55499936 -6.46821373 134.32209712 -10.90234375 133.62890625 C-13.77734375 131.69140625 -13.77734375 131.69140625 -15.90234375 128.62890625 C-16.67384766 127.73365234 -16.67384766 127.73365234 -17.4609375 126.8203125 C-26.18604347 116.54062195 -35.88730108 100.2720379 -36.0793457 86.47802734 C-36.09218094 85.6697348 -36.10501617 84.86144226 -36.11824036 84.02865601 C-36.12932076 82.72863144 -36.12932076 82.72863144 -36.140625 81.40234375 C-36.14869675 80.49948639 -36.15676849 79.59662903 -36.16508484 78.66641235 C-36.17890277 76.75500393 -36.18963515 74.84357106 -36.19750977 72.93212891 C-36.20900261 70.99064836 -36.22941145 69.04919874 -36.2590332 67.10791016 C-36.56366983 47.1312354 -36.56366983 47.1312354 -31.90234375 38.62890625 C-31.29690471 37.09578608 -30.71248634 35.55414951 -30.15234375 34.00390625 C-29.73984375 32.89015625 -29.32734375 31.77640625 -28.90234375 30.62890625 C-28.24234375 30.62890625 -27.58234375 30.62890625 -26.90234375 30.62890625 C-26.79921875 29.70078125 -26.69609375 28.77265625 -26.58984375 27.81640625 C-25.83874325 24.33403122 -25.38491537 23.92758368 -22.90234375 21.62890625 C-22.09796875 20.11296875 -22.09796875 20.11296875 -21.27734375 18.56640625 C-18.35775452 13.24777471 -14.05860578 8.9973718 -9.90234375 4.62890625 C-9.23074219 3.88125 -8.55914062 3.13359375 -7.8671875 2.36328125 C-5.36841113 0.15760191 -3.26796981 0.11044828 0 0 Z " fill="#040404" transform="translate(185.90234375,239.37109375)"/>
<path d="M0 0 C1.3526192 0.62661273 2.69811953 1.27382546 4 2 C4.86190279 16.88218822 4.86190279 16.88218822 1.8125 20.875 C1.35230469 21.38160156 0.89210938 21.88820313 0.41796875 22.41015625 C-1.22333832 24.25040963 -2.23549513 26.12813352 -3.375 28.3125 C-8.41570991 37.54858337 -14.7914646 45.3720589 -22 53 C-22.90878906 53.97066406 -22.90878906 53.97066406 -23.8359375 54.9609375 C-25.17686885 56.35419788 -26.58175148 57.68552576 -28 59 C-28.66 59 -29.32 59 -30 59 C-30 59.66 -30 60.32 -30 61 C-31.35546875 62.33203125 -31.35546875 62.33203125 -33.1875 63.8125 C-35.40565998 65.64104306 -37.38791245 67.40832889 -39.375 69.5 C-45.58343762 75.41279774 -51.34866108 79.14363667 -59.9375 79.25 C-61.18402344 79.27578125 -62.43054688 79.3015625 -63.71484375 79.328125 C-67 79 -67 79 -68.53979492 77.94995117 C-75.58778995 68.53809091 -75.80543863 54.01959221 -75.65185547 42.77612305 C-75.62463619 40.40581905 -75.65199463 38.04009885 -75.68359375 35.66992188 C-75.717616 21.86447065 -75.717616 21.86447065 -71.390625 16.37329102 C-69.45432454 14.46112633 -67.58861823 13.03783724 -65.1875 11.75 C-63.87265625 11.03457031 -63.87265625 11.03457031 -62.53125 10.3046875 C-61.6959375 9.87414062 -60.860625 9.44359375 -60 9 C-59.3503125 8.63132812 -58.700625 8.26265625 -58.03125 7.8828125 C-53.05907488 5.16497102 -47.82161574 3.61157384 -42.40234375 2.01171875 C-39.01675157 1.00498124 -35.66403962 -0.07300243 -32.3125 -1.1875 C-31.33925781 -1.51105469 -30.36601562 -1.83460937 -29.36328125 -2.16796875 C-19.167852 -5.75743393 -10.14687999 -3.27087661 0 0 Z " fill="#020202" transform="translate(281,82)"/>
<path d="M0 0 C3.74633486 1.24877829 5.41041797 3.06047445 8 6 C8 6.99 8 7.98 8 9 C8.66 9 9.32 9 10 9 C11.5859375 10.94921875 11.5859375 10.94921875 13.375 13.6875 C14.25285156 14.99267578 14.25285156 14.99267578 15.1484375 16.32421875 C20.47381252 26.00120245 21.7000642 36.31625928 21.63134766 47.15820312 C21.62495822 49.26376729 21.67237716 51.36386215 21.72265625 53.46875 C21.80170651 61.96381012 20.71132555 67.56730751 15 74 C14.42499756 74.71760498 13.84999512 75.43520996 13.25756836 76.17456055 C9.12592813 81.3071486 4.28080483 85.11536441 -1 89 C-1.94230469 89.72316406 -2.88460937 90.44632812 -3.85546875 91.19140625 C-21.23366878 104.47797316 -21.23366878 104.47797316 -26.62890625 105.49609375 C-29 105 -29 105 -30.8203125 103.0078125 C-32.32353043 99.17510453 -32.20764838 95.89511887 -31.875 91.875 C-31.81932861 91.09020264 -31.76365723 90.30540527 -31.70629883 89.49682617 C-30.6776279 76.48291278 -28.47676244 63.80089221 -24.90625 51.25 C-24.12952506 48.46450366 -23.4969974 45.70978683 -22.9375 42.875 C-22.04743674 39.19607187 -20.93462282 37.17278143 -19 34 C-18.48893778 32.40570806 -18.01336952 30.79984862 -17.5625 29.1875 C-16.20147649 24.43093328 -14.35535225 20.33384815 -12 16 C-11.51015625 15.0409375 -11.0203125 14.081875 -10.515625 13.09375 C-9.99484375 12.0934375 -9.4740625 11.093125 -8.9375 10.0625 C-8.45152344 9.12535156 -7.96554688 8.18820313 -7.46484375 7.22265625 C-6 5 -6 5 -3 4 C-2.67 3.01 -2.34 2.02 -2 1 C-1.34 0.67 -0.68 0.34 0 0 Z " fill="#030303" transform="translate(172,136)"/>
<path d="M0 0 C0.66 0.33 1.32 0.66 2 1 C-3.2295082 9.1147541 -3.2295082 9.1147541 -7 11 C-7.33 11.99 -7.66 12.98 -8 14 C-9.32 13.34 -10.64 12.68 -12 12 C-11.46890625 11.55269531 -10.9378125 11.10539063 -10.390625 10.64453125 C-6.52111681 7.33285362 -3.01412695 4.14442456 0 0 Z " fill="#DDDDDD" transform="translate(263,129)"/>
<path d="M0 0 C2 0 2 0 4.625 2.3125 C7 5 7 5 7 8 C3.20411134 7.45773019 1.52788007 5.79872437 -1 3 C-0.67 2.01 -0.34 1.02 0 0 Z " fill="#111111" transform="translate(297,280)"/>
<path d="M0 0 C0 1.66666667 0 3.33333333 0 5 C-1.65 5.66 -3.3 6.32 -5 7 C-5 6.34 -5 5.68 -5 5 C-8.63 5 -12.26 5 -16 5 C-16 4.67 -16 4.34 -16 4 C-14.64455078 3.94392578 -14.64455078 3.94392578 -13.26171875 3.88671875 C-12.08222656 3.82097656 -10.90273437 3.75523437 -9.6875 3.6875 C-8.51574219 3.62949219 -7.34398437 3.57148438 -6.13671875 3.51171875 C-2.9016314 2.98395232 -1.91315119 2.57619276 0 0 Z " fill="#DDDDDD" transform="translate(191,369)"/>
<path d="M0 0 C0.33 0 0.66 0 1 0 C1.33 5.28 1.66 10.56 2 16 C1.34 15.67 0.68 15.34 0 15 C0 14.34 0 13.68 0 13 C-0.66 13 -1.32 13 -2 13 C-1.34 8.71 -0.68 4.42 0 0 Z " fill="#E7E7E7" transform="translate(222,354)"/>
<path d="M0 0 C1 2 1 2 0.58203125 3.83984375 C-0.93195161 7.96679196 -1.96518469 10.773895 -6 13 C-4.75696561 7.82069003 -3.14512215 4.29833361 0 0 Z " fill="#1C1C1C" transform="translate(165,143)"/>
<path d="M0 0 C0.66 0.33 1.32 0.66 2 1 C-0.8689341 4.50647501 -3.7317654 7.85281112 -7 11 C-7.66 10.67 -8.32 10.34 -9 10 C-7.8758824 8.70756532 -6.75067408 7.41607925 -5.625 6.125 C-4.99851563 5.40570313 -4.37203125 4.68640625 -3.7265625 3.9453125 C-2.52573166 2.5923402 -1.2791655 1.2791655 0 0 Z " fill="#2A2A2A" transform="translate(259,167)"/>
<path d="M0 0 C-5.16923077 4.92307692 -5.16923077 4.92307692 -9.375 5.3125 C-10.674375 5.1578125 -10.674375 5.1578125 -12 5 C-10.7410501 2.4821002 -9.60942883 2.07291536 -7.125 0.8125 C-6.42632812 0.44769531 -5.72765625 0.08289063 -5.0078125 -0.29296875 C-3 -1 -3 -1 0 0 Z " fill="#292929" transform="translate(228,90)"/>
<path d="M0 0 C0.66 0.33 1.32 0.66 2 1 C1.50628906 1.48210937 1.01257813 1.96421875 0.50390625 2.4609375 C-0.45708984 3.40839844 -0.45708984 3.40839844 -1.4375 4.375 C-2.07558594 5.00148437 -2.71367187 5.62796875 -3.37109375 6.2734375 C-5.07882176 7.91723061 -5.07882176 7.91723061 -6 10 C-7.32 9.34 -8.64 8.68 -10 8 C-9.44570312 7.59007812 -8.89140625 7.18015625 -8.3203125 6.7578125 C-7.59585938 6.21898437 -6.87140625 5.68015625 -6.125 5.125 C-5.04605469 4.32449219 -5.04605469 4.32449219 -3.9453125 3.5078125 C-1.91747368 2.00126838 -1.91747368 2.00126838 0 0 Z " fill="#DDDDDD" transform="translate(174,221)"/>
<path d="M0 0 C0.625 1.8125 0.625 1.8125 1 4 C0.01 5.485 0.01 5.485 -1 7 C-2.65 6.67 -4.3 6.34 -6 6 C-2.25 1.125 -2.25 1.125 0 0 Z " fill="#1D1D1D" transform="translate(275,153)"/>
<path d="M0 0 C0.33 1.32 0.66 2.64 1 4 C-0.65 5.32 -2.3 6.64 -4 8 C-4.25 5.6875 -4.25 5.6875 -4 3 C-2 1.1875 -2 1.1875 0 0 Z " fill="#E4E4E4" transform="translate(232,247)"/>
<path d="M0 0 C0.33 0 0.66 0 1 0 C1.08090971 1.62418745 1.13914995 3.24951745 1.1875 4.875 C1.22230469 5.77992188 1.25710937 6.68484375 1.29296875 7.6171875 C1.19628906 8.40351563 1.09960938 9.18984375 1 10 C0.01 10.66 -0.98 11.32 -2 12 C-1.85831863 10.56208484 -1.71148957 9.1246763 -1.5625 7.6875 C-1.48128906 6.88699219 -1.40007812 6.08648437 -1.31640625 5.26171875 C-1 3 -1 3 0 0 Z " fill="#D6D6D6" transform="translate(195,354)"/>
<path d="M0 0 C0.66 0 1.32 0 2 0 C0.05394864 4.17011006 -1.82988994 6.05394864 -6 8 C-5.34 6.68 -4.68 5.36 -4 4 C-3.34 4 -2.68 4 -2 4 C-1.34 2.68 -0.68 1.36 0 0 Z " fill="#CFCFCF" transform="translate(249,143)"/>
<path d="M0 0 C2.475 0.99 2.475 0.99 5 2 C4.01 2.99 3.02 3.98 2 5 C1.01 4.34 0.02 3.68 -1 3 C-0.67 2.01 -0.34 1.02 0 0 Z " fill="#161616" transform="translate(233,152)"/>
<path d="M0 0 C0.66 0 1.32 0 2 0 C2 0.66 2 1.32 2 2 C0.04072937 3.7143618 -1.95880212 5.38405168 -4 7 C-4.66 6.67 -5.32 6.34 -6 6 C-4 4 -2 2 0 0 Z " fill="#212121" transform="translate(214,95)"/>
<path d="M0 0 C-1.32 0.99 -2.64 1.98 -4 3 C-5.32 2.34 -6.64 1.68 -8 1 C-4.93251126 -0.86240388 -3.40254489 -1.2151946 0 0 Z " fill="#191919" transform="translate(320,385)"/>
<path d="M0 0 C0.33 0 0.66 0 1 0 C2.12029814 5.48946087 1.79217969 8.83430559 0 14 C-0.33 14 -0.66 14 -1 14 C-1.08333357 9.1666528 -0.95261487 4.76307437 0 0 Z " fill="#2E2E2E" transform="translate(142,212)"/>
</svg>
